HIERARCHY
ROOT Hips
{
	OFFSET 53.836498 85.059097 4.782996
	CHANNELS 6 Xposition Yposition Zposition Xrotation Yrotation Zrotation
	JOINT spine
	{
		OFFSET 0.000000 6.392601 0.367610
		CHANNELS 3 Xrotation Yrotation Zrotation
		JOINT spine1
		{
			OFFSET 0.000000 9.176109 0.000004
			CHANNELS 3 Xrotation Yrotation Zrotation
			JOINT spine2
			{
				OFFSET 0.000000 8.792381 0.000004
				CHANNELS 3 Xrotation Yrotation Zrotation
				JOINT Neck
				{
					OFFSET 0.000000 22.573708 1.076256
					CHANNELS 3 Xrotation Yrotation Zrotation
					JOINT Head
					{
						OFFSET 0.000000 6.820114 0.000004
						CHANNELS 3 Xrotation Yrotation Zrotation
						End Site
						{
							OFFSET 0.000000 16.508499 -5.444258
						}
					}
				}
				JOINT RightShoulder
				{
					OFFSET -3.702209 9.495087 -0.515500
					CHANNELS 3 Xrotation Yrotation Zrotation
					JOINT RightArm
					{
						OFFSET 0.000000 12.453697 0.000008
						CHANNELS 3 Xrotation Yrotation Zrotation
						JOINT RightArmRoll
						{
							OFFSET 0.000000 6.286865 0.000004
							CHANNELS 3 Xrotation Yrotation Zrotation
							JOINT RightForeArm
							{
								OFFSET 0.000000 18.311401 0.000012
								CHANNELS 3 Xrotation Yrotation Zrotation
								JOINT RightForeArmRoll
								{
									OFFSET 0.000000 7.054825 0.000004
									CHANNELS 3 Xrotation Yrotation Zrotation
									JOINT RightHand
									{
										OFFSET 0.000000 14.157501 0.000009
										CHANNELS 3 Xrotation Yrotation Zrotation
										End Site
										{
											OFFSET 0.000000 0.100006 0.000000
										}
									}
								}
							}
						}
					}
				}
				JOINT LeftShoulder
				{
					OFFSET 3.702209 9.495087 -0.515500
					CHANNELS 3 Xrotation Yrotation Zrotation
					JOINT LeftArm
					{
						OFFSET 0.000000 12.453697 0.000008
						CHANNELS 3 Xrotation Yrotation Zrotation
						JOINT LeftArmRoll
						{
							OFFSET 0.000000 6.286865 0.000004
							CHANNELS 3 Xrotation Yrotation Zrotation
							JOINT LeftForeArm
							{
								OFFSET 0.000000 18.311401 0.000012
								CHANNELS 3 Xrotation Yrotation Zrotation
								JOINT LeftForeArmRoll
								{
									OFFSET 0.000000 7.054825 0.000004
									CHANNELS 3 Xrotation Yrotation Zrotation
									JOINT LeftHand
									{
										OFFSET 0.000000 14.157501 0.000009
										CHANNELS 3 Xrotation Yrotation Zrotation
										End Site
										{
											OFFSET 0.000000 0.100006 0.000000
										}
									}
								}
							}
						}
					}
				}
			}
		}
	}
	JOINT RightUpLeg
	{
		OFFSET -5.666161 -1.039032 -0.871610
		CHANNELS 3 Xrotation Yrotation Zrotation
		JOINT RightUpLegRoll
		{
			OFFSET 0.000000 16.600502 0.000012
			CHANNELS 3 Xrotation Yrotation Zrotation
			JOINT RightLeg
			{
				OFFSET 0.000000 -20.557198 -0.000012
				CHANNELS 3 Xrotation Yrotation Zrotation
				JOINT RightLegRoll
				{
					OFFSET 0.000000 20.624397 0.000012
					CHANNELS 3 Xrotation Yrotation Zrotation
					JOINT RightFoot
					{
						OFFSET 0.000000 17.166405 0.000012
						CHANNELS 3 Xrotation Yrotation Zrotation
						JOINT RightToeBase
						{
							OFFSET 0.000000 14.350204 0.000008
							CHANNELS 3 Xrotation Yrotation Zrotation
							End Site
							{
								OFFSET 0.006081 6.949707 -0.801057
							}
						}
					}
				}
			}
		}
	}
	JOINT LeftUpLeg
	{
		OFFSET 5.666161 -1.039032 -0.871610
		CHANNELS 3 Xrotation Yrotation Zrotation
		JOINT LeftUpLegRoll
		{
			OFFSET 0.000000 16.600601 0.000012
			CHANNELS 3 Xrotation Yrotation Zrotation
			JOINT LeftLeg
			{
				OFFSET 0.000000 20.557098 0.000012
				CHANNELS 3 Xrotation Yrotation Zrotation
				JOINT LeftLegRoll
				{
					OFFSET 0.000000 20.815094 0.000012
					CHANNELS 3 Xrotation Yrotation Zrotation
					JOINT LeftFoot
					{
						OFFSET 0.000000 16.975708 0.000012
						CHANNELS 3 Xrotation Yrotation Zrotation
						JOINT LeftToeBase
						{
							OFFSET 0.000000 14.350204 0.000008
							CHANNELS 3 Xrotation Yrotation Zrotation
							End Site
							{
								OFFSET -0.027260 6.949707 -0.801057
							}
						}
					}
				}
			}
		}
	}
}
MOTION
Frames: 12
Frame Time: 0.041667
57.396694 85.579521 7.431007 -0.720869 -1.354413 -1.174331 -1.292380 -0.140148 -0.358700 1.397594 -0.301507 -0.705302 3.042633 -0.309937 -0.701644 11.172691 -0.674286 6.072376 5.074880 -0.421932 -3.285406 0.788077 -6.616733 63.407822 -3.555899 17.323078 111.931665 -0.000002 -0.000004 0.000002 7.362279 1.102115 17.149253 -0.000004 -3.000168 -0.000002 -5.000192 0.000155 7.998934 -1.221683 6.028510 -50.886890 -3.150910 -12.463597 -117.836978 -0.000000 0.000004 0.000017 3.365493 0.098758 -11.488048 -0.000002 3.004669 0.000013 -5.000263 -0.000165 -7.998729 -1.885981 0.110237 178.168995 179.999991 -1.006024 0.000004 171.951952 -0.767418 3.777395 0.000004 0.089170 -0.000002 68.565995 2.256946 -6.858021 26.220649 0.119558 7.349767 -0.745113 -1.648804 -176.985078 -0.000005 -1.049599 0.000003 -7.995401 0.597116 -1.325351 -0.000007 -0.136926 -0.000000 71.089948 -2.162807 6.825243 25.494624 -0.070216 -7.355086 
57.399593 85.575211 7.438384 -0.712655 -1.363052 -1.166037 -1.291205 -0.139516 -0.357656 1.400968 -0.299140 -0.704433 3.046017 -0.307560 -0.700803 11.154974 -0.672229 6.051051 5.068063 -0.419746 -3.275153 0.783857 -6.600617 63.386976 -3.517537 17.331096 111.932047 0.000001 -0.000003 0.000001 7.410698 1.112232 17.163613 0.000000 -3.000168 -0.000001 -5.000187 0.000155 7.998937 -1.221162 6.048451 -50.897463 -3.116169 -12.507195 -117.843877 0.000001 0.000004 0.000016 3.422199 0.092937 -11.509742 -0.000002 3.004667 0.000014 -5.000265 -0.000163 -7.998730 -1.954934 0.117508 178.167055 179.999991 -1.006024 0.000005 171.836659 -0.774027 3.762451 0.000004 0.090902 -0.000002 68.612508 2.256954 -6.856920 26.278562 0.132837 7.349893 -0.790299 -1.646722 -176.997112 -0.000005 -1.049600 0.000003 -8.102599 0.600658 -1.334762 -0.000005 -0.139696 -0.000001 71.158010 -2.165064 6.822985 25.495284 -0.071451 -7.355077 
57.408596 85.566589 7.434794 -0.705253 -1.371801 -1.157850 -1.289915 -0.138791 -0.356562 1.404615 -0.296572 -0.703523 3.049652 -0.304978 -0.699923 11.136886 -0.670348 6.029788 5.061743 -0.417742 -3.264793 0.779663 -6.584691 63.366055 -3.477601 17.339513 111.931993 0.000000 -0.000004 0.000002 7.460889 1.122772 17.178677 -0.000001 -3.000168 -0.000002 -5.000195 0.000155 7.998934 -1.220627 6.068356 -50.908053 -3.081831 -12.551507 -117.850789 0.000002 0.000004 0.000017 3.480787 0.086986 -11.530796 -0.000002 3.004667 0.000014 -5.000262 -0.000163 -7.998731 -2.023825 0.124574 178.166154 179.999991 -1.006024 0.000004 171.719739 -0.779833 3.748486 0.000003 0.092652 -0.000002 68.659800 2.257111 -6.855812 26.338857 0.146294 7.350004 -0.834210 -1.643381 -177.008150 -0.000005 -1.049599 0.000003 -8.211315 0.604284 -1.345276 -0.000008 -0.142496 0.000000 71.228423 -2.167640 6.820568 25.495850 -0.072522 -7.355084 
57.400894 85.564018 7.430811 -0.698421 -1.380625 -1.149745 -1.288534 -0.138004 -0.355427 1.408442 -0.293862 -0.702584 3.053481 -0.302261 -0.699016 11.118519 -0.668611 6.008547 5.055752 -0.415866 -3.254374 0.775494 -6.568887 63.345237 -3.436926 17.348279 111.932669 -0.000002 -0.000004 0.000003 7.512338 1.133619 17.194168 0.000000 -3.000170 -0.000002 -5.000197 0.000155 7.998937 -1.220079 6.088237 -50.918633 -3.047670 -12.596195 -117.857660 0.000003 0.000004 0.000014 3.540700 0.080929 -11.551531 -0.000002 3.004668 0.000013 -5.000268 -0.000163 -7.998731 -2.092679 0.131557 178.164228 179.999991 -1.006024 0.000003 171.601700 -0.786505 3.733500 0.000003 0.094415 -0.000002 68.707598 2.257232 -6.854698 26.400758 0.159867 7.350103 -0.877262 -1.639137 -177.019188 -0.000005 -1.049599 0.000004 -8.321094 0.607980 -1.356538 -0.000006 -0.145315 -0.000000 71.300434 -2.170325 6.818111 25.496340 -0.073481 -7.355085 
57.404991 85.567024 7.430984 -0.691898 -1.389502 -1.141689 -1.287120 -0.137178 -0.354272 1.412382 -0.291076 -0.701629 3.057418 -0.299461 -0.698093 11.099958 -0.666934 5.987344 5.049976 -0.414064 -3.243907 0.771343 -6.553172 63.324364 -3.395268 17.357158 111.932102 0.000000 -0.000004 0.000001 7.564487 1.144652 17.209905 -0.000005 -3.000168 -0.000001 -5.000197 0.000155 7.998936 -1.219516 6.108106 -50.929333 -3.013658 -12.641166 -117.864490 0.000000 0.000004 0.000018 3.601367 0.074800 -11.571938 0.000000 3.004670 0.000013 -5.000265 -0.000164 -7.998728 -2.161509 0.138475 178.162315 179.999991 -1.006024 0.000003 171.483032 -0.793308 3.719489 0.000004 0.096185 -0.000002 68.755717 2.257243 -6.853593 26.463667 0.173518 7.350178 -0.919823 -1.634380 -177.030252 -0.000005 -1.049599 0.000003 -8.431484 0.611741 -1.368242 -0.000005 -0.148147 0.000000 71.373339 -2.173059 6.815639 25.496825 -0.074378 -7.355083 
57.417789 85.573593 7.437258 -0.685471 -1.398374 -1.133632 -1.285682 -0.136347 -0.353116 1.416340 -0.288267 -0.700666 3.061377 -0.296639 -0.697165 11.081302 -0.665274 5.966145 5.044225 -0.412280 -3.233424 0.767215 -6.537460 63.303559 -3.353505 17.366195 111.931501 -0.000001 -0.000004 0.000002 7.616800 1.155753 17.225720 0.000002 -3.000169 -0.000002 -5.000199 0.000155 7.998937 -1.218941 6.127969 -50.939933 -2.979648 -12.686149 -117.871279 0.000001 0.000004 0.000018 3.662212 0.068615 -11.592329 -0.000000 3.004669 0.000013 -5.000262 -0.000161 -7.998728 -2.230335 0.145342 178.161400 179.999991 -1.006024 0.000004 171.364201 -0.800082 3.705483 0.000002 0.097957 -0.000002 68.803876 2.257442 -6.852468 26.526771 0.187177 7.350226 -0.962219 -1.629497 -177.040293 -0.000005 -1.049600 0.000003 -8.542021 0.615556 -1.380040 -0.000003 -0.150980 -0.000000 71.446367 -2.175795 6.813202 25.497306 -0.075265 -7.355081 
57.413597 85.568108 7.434589 -0.678872 -1.407228 -1.125557 -1.284276 -0.135530 -0.351967 1.420248 -0.285496 -0.699715 3.065285 -0.293858 -0.696248 11.062839 -0.663539 5.944925 5.038382 -0.410465 -3.222964 0.763082 -6.521717 63.282659 -3.312046 17.375122 111.930989 -0.000002 -0.000003 0.000001 7.668761 1.166815 17.241440 -0.000000 -3.000168 -0.000001 -5.000200 0.000154 7.998937 -1.218365 6.147837 -50.950626 -2.945593 -12.731061 -117.878000 -0.000001 0.000004 0.000015 3.722678 0.062409 -11.612803 -0.000001 3.004668 0.000012 -5.000263 -0.000164 -7.998727 -2.299166 0.152288 178.159488 179.999991 -1.006024 0.000003 171.245683 -0.806765 3.691457 0.000002 0.099724 -0.000002 68.851934 2.257566 -6.851391 26.589380 0.200807 7.350271 -1.004889 -1.624846 -177.051344 -0.000005 -1.049600 0.000003 -8.652253 0.619406 -1.391611 -0.000005 -0.153809 -0.000000 71.519116 -2.178541 6.810747 25.497798 -0.076171 -7.355082 
57.444592 85.545914 7.408363 -0.671864 -1.416028 -1.117419 -1.282920 -0.134760 -0.350846 1.424026 -0.282829 -0.698786 3.069060 -0.291180 -0.695349 11.044574 -0.661704 5.923691 5.032308 -0.408562 -3.212555 0.758956 -6.505875 63.261765 -3.271332 17.383767 111.930702 -0.000001 -0.000004 0.000002 7.719826 1.177690 17.256770 -0.000002 -3.000169 0.000001 -5.000197 0.000155 7.998934 -1.217781 6.167723 -50.961226 -2.911625 -12.775684 -117.885718 0.000003 0.000004 0.000019 3.782196 0.056200 -11.633573 -0.000001 3.004665 0.000014 -5.000262 -0.000164 -7.998730 -2.368024 0.159324 178.157575 179.999991 -1.006024 0.000004 171.127958 -0.813184 3.676444 0.000004 0.101485 -0.000002 68.899561 2.257613 -6.850304 26.650864 0.214363 7.350275 -1.048186 -1.620788 -177.062395 -0.000005 -1.049600 0.000003 -8.761725 0.623279 -1.402629 -0.000004 -0.156623 0.000000 71.590635 -2.181096 6.808405 25.498283 -0.077160 -7.355081 
57.445492 85.546608 7.412089 -0.664197 -1.424732 -1.109184 -1.281666 -0.134066 -0.349766 1.427582 -0.280319 -0.697890 3.072617 -0.288658 -0.694483 11.026596 -0.659691 5.902421 5.025824 -0.406519 -3.202239 0.754828 -6.489873 63.240961 -3.231874 17.392050 111.930777 -0.000001 -0.000003 -0.000000 7.769464 1.188276 17.271545 0.000003 -3.000168 -0.000001 -5.000193 0.000155 7.998938 -1.217211 6.187639 -50.971731 -2.877104 -12.819751 -117.892289 0.000003 0.000004 0.000018 3.840192 0.050016 -11.654854 -0.000003 3.004669 0.000013 -5.000262 -0.000164 -7.998728 -2.436947 0.166465 178.156660 179.999991 -1.006024 0.000003 171.011558 -0.819618 3.662426 0.000003 0.103229 -0.000003 68.946607 2.257798 -6.849226 26.710384 0.227750 7.350264 -1.092470 -1.617726 -177.073447 -0.000004 -1.049600 0.000003 -8.869981 0.627147 -1.412741 -0.000003 -0.159415 -0.000001 71.660303 -2.183680 6.806168 25.498940 -0.078294 -7.355084 
57.411198 85.554512 7.432271 -0.655638 -1.433309 -1.100829 -1.280543 -0.133468 -0.348743 1.430853 -0.278030 -0.697040 3.075887 -0.286360 -0.693663 11.009107 -0.657439 5.881098 5.018812 -0.404279 -3.192023 0.750698 -6.473657 63.220053 -3.194132 17.399895 111.931357 0.000000 -0.000004 0.000003 7.817129 1.198445 17.285600 0.000001 -3.000169 -0.000003 -5.000197 0.000155 7.998934 -1.216645 6.207594 -50.982246 -2.842252 -12.863211 -117.898805 0.000003 0.000004 0.000020 3.896107 0.043885 -11.676741 -0.000001 3.004668 0.000014 -5.000262 -0.000164 -7.998728 -2.505920 0.173845 178.154761 179.999991 -1.006023 0.000004 170.896934 -0.825722 3.647435 0.000002 0.104954 -0.000002 68.992895 2.257837 -6.848164 26.767375 0.240970 7.350227 -1.138137 -1.616009 -177.085495 -0.000004 -1.049599 0.000003 -8.976554 0.630991 -1.421644 -0.000003 -0.162174 -0.000001 71.727546 -2.186031 6.804046 25.499586 -0.079588 -7.355072 
57.430988 85.545021 7.422743 -0.645927 -1.441719 -1.092301 -1.279584 -0.132999 -0.347792 1.433751 -0.276022 -0.696251 3.078787 -0.284342 -0.692896 10.992183 -0.654897 5.859705 5.011097 -0.401789 -3.181946 0.746552 -6.457178 63.199126 -3.158853 17.406983 111.933625 -0.000001 -0.000003 0.000001 7.862288 1.208074 17.298759 -0.000004 -3.000168 -0.000004 -5.000197 0.000155 7.998938 -1.216094 6.227591 -50.992666 -2.806930 -12.905812 -117.905225 0.000001 0.000004 0.000018 3.949377 0.037827 -11.699545 -0.000004 3.004667 0.000013 -5.000265 -0.000165 -7.998727 -2.574989 0.181430 178.153860 179.999991 -1.006024 0.000003 170.784536 -0.831647 3.632473 0.000002 0.106654 -0.000002 69.038049 2.258044 -6.847108 26.821053 0.253951 7.350176 -1.185549 -1.616025 -177.097543 -0.000004 -1.049599 0.000004 -9.081010 0.634785 -1.428993 0.000001 -0.164892 -0.000001 71.791640 -2.188195 6.802053 25.500407 -0.081116 -7.355076 
57.433491 85.549301 7.431136 -0.634830 -1.449936 -1.083585 -1.278824 -0.132686 -0.346929 1.436206 -0.274354 -0.695532 3.081227 -0.282665 -0.692196 10.976029 -0.651994 5.838227 5.002556 -0.398999 -3.172046 0.742404 -6.440371 63.178294 -3.125886 17.413332 111.935613 0.000002 -0.000003 0.000000 7.904432 1.217030 17.310730 0.000002 -3.000169 -0.000003 -5.000192 0.000154 7.998935 -1.215569 6.247651 -51.002884 -2.771038 -12.947364 -117.911550 0.000002 0.000004 0.000017 3.999420 0.031878 -11.723285 -0.000004 3.004668 0.000013 -5.000263 -0.000164 -7.998730 -2.644149 0.189362 178.151961 179.999991 -1.006024 0.000004 170.674912 -0.837159 3.616535 0.000003 0.108323 -0.000002 69.081947 2.258133 -6.846075 26.870654 0.266622 7.350119 -1.235086 -1.618136 -177.110616 -0.000005 -1.049599 0.000003 -9.182883 0.638499 -1.434469 0.000001 -0.167562 -0.000000 71.851944 -2.189942 6.800270 25.501382 -0.082930 -7.355080 
